# 3ds Max Wavefront OBJ Exporter v0.97b - (c)2007 guruware
# File Created: 05.06.2015 06:03:07

#
# object SectionA
#

v  -2642.9011 510.2559 3955.3867
v  -2666.7346 10.2559 3991.0562
v  -3264.2449 10.2559 3500.6929
v  -3264.2449 510.2559 3500.6929
v  -1820.4604 510.2559 4394.9897
v  -1836.8772 10.2559 4434.6230
v  -936.4296 510.2559 4707.7700
v  -936.4296 10.2559 4707.7700
v  0.0045 510.2559 4800.0000
v  0.0044 439.2195 4800.0000
v  0.0045 10.2559 4800.0000
v  -2270.8635 10.2559 3398.5920
v  -2891.2258 10.2559 2891.2292
v  -3275.3169 10.2559 3275.3208
v  -3312.8879 10.2559 3322.3499
v  -3330.5664 10.2559 3368.4014
v  -3328.3518 10.2559 3413.4761
v  -3306.2449 10.2559 3457.5728
v  -1564.1965 10.2559 3776.3130
v  -797.4186 10.2559 4008.9119
v  25.6121 10.2991 4070.5986
v  -797.6845 510.2559 4010.2485
v  25.6120 510.2991 4070.5991
v  -1564.7183 510.2559 3777.5720
v  -2271.6206 510.2559 3399.7256
v  -3306.2449 510.2559 3457.5728
v  -3328.3518 510.2559 3413.4761
v  -3330.5664 510.2559 3368.4014
v  -3312.8879 510.2559 3322.3499
v  -3275.3169 510.2559 3275.3208
v  -2891.2258 510.2559 2891.2292
v  -1594.8796 10.2559 2386.9092
v  -2029.8972 10.2559 2029.8999
v  -1098.5713 10.2559 2652.1912
v  -560.0456 10.2559 2815.5505
v  0.0024 10.2559 2870.7100
v  -560.0455 510.2559 2815.5505
v  0.0024 510.2559 2870.7100
v  -1098.5713 510.2559 2652.1912
v  -1594.8796 510.2559 2386.9094
v  -2029.8972 510.2559 2029.8999
v  -1326.9158 10.2559 1985.8726
v  -1688.8438 10.2559 1688.8462
v  -913.9948 10.2559 2206.5830
v  -465.9495 10.2559 2342.4956
v  0.0019 10.2559 2388.3875
v  -465.9495 510.2559 2342.4956
v  0.0019 510.2559 2388.3875
v  -913.9948 510.2559 2206.5830
v  -1326.9158 510.2559 1985.8728
v  -1688.8438 510.2559 1688.8462
v  -523.0244 10.2559 782.7627
v  -729.5311 10.2559 729.5328
v  -697.8338 10.2559 677.5027
v  -708.8372 10.2559 703.7558
v  -696.5207 10.2559 650.7736
v  -360.2652 10.2559 869.7590
v  -183.6615 10.2559 923.3309
v  -183.6615 510.2559 923.3309
v  -89.8589 510.2559 932.5696
v  -32.3490 510.2559 952.6808
v  -57.5096 510.2559 939.3675
v  -14.3772 510.2559 972.5096
v  -3.5940 510.2559 998.8541
v  0.0004 510.2559 1031.7139
v  -360.2655 510.2559 869.7589
v  -523.0242 510.2559 782.7627
v  -729.5311 510.2559 729.5327
v  -703.7542 510.2559 708.8389
v  -677.5011 510.2559 697.8353
v  -650.7719 510.2559 696.5222
v  -623.5667 510.2559 704.8995
v  -595.8854 510.2559 722.9670
v  -2029.8972 439.2195 2029.8999
v  25.6120 439.2628 4070.5986
v  -1688.8438 439.2195 1688.8462
v  0.0004 10.2559 1031.7139
v  14.3778 10.2559 972.5096
v  32.3496 10.2559 952.6808
v  3.5947 10.2559 998.8541
# 80 vertices

vn 0.5437 -0.0431 -0.8382
vn 0.5547 -0.0571 -0.8301
vn 0.6121 -0.0280 -0.7903
vn 0.5906 0.0000 -0.8070
vn 0.4030 -0.0571 -0.9134
vn 0.3942 -0.0449 -0.9179
vn 0.2046 -0.0123 -0.9788
vn 0.1951 0.0000 -0.9808
vn 0.0980 -0.0000 -0.9952
vn 0.0980 0.0000 -0.9952
vn 0.0000 1.0000 -0.0000
vn -0.0000 1.0000 0.0000
vn 0.0000 -1.0000 -0.0000
vn -0.0000 1.0000 -0.0000
vn 0.0000 -1.0000 0.0000
vn 0.7071 0.0000 0.7071
vn -0.9999 -0.0000 0.0107
vn -0.9999 0.0000 0.0107
vn -1.0000 0.0000 0.0000
vn -0.9998 -0.0000 0.0213
vn -0.9994 0.0000 -0.0351
vn 0.7163 0.0000 -0.6977
vn 0.8148 0.0000 -0.5798
vn 0.9672 0.0000 -0.2541
vn 0.9874 0.0000 0.1581
vn 0.8677 0.0000 0.4971
vn 0.7813 0.0000 0.6242
# 27 vertex normals

vt 0.1239 0.3397 0.0000
vt 0.0012 0.3358 0.0000
vt 0.0012 0.2380 0.0000
vt 0.1239 0.2380 0.0000
vt 0.1239 0.4742 0.0000
vt 0.0012 0.4715 0.0000
vt 0.1239 0.6189 0.0000
vt 0.0012 0.6189 0.0000
vt 0.1239 0.7721 0.0000
vt 0.1064 0.7721 0.0000
vt 0.0012 0.7721 0.0000
vt 0.5900 0.3679 0.0000
vt 0.6703 0.4656 0.0000
vt 0.5733 0.5304 0.0000
vt 0.4903 0.4289 0.0000
vt 0.5532 0.3661 0.0000
vt 0.5608 0.3599 0.0000
vt 0.5684 0.3570 0.0000
vt 0.5758 0.3574 0.0000
vt 0.5830 0.3610 0.0000
vt 0.6351 0.6460 0.0000
vt 0.7428 0.6014 0.0000
vt 0.6732 0.7715 0.0000
vt 0.7875 0.7487 0.0000
vt 0.6833 0.9061 0.0000
vt 0.8026 0.9019 0.0000
vt 0.2583 0.1304 0.0000
vt 0.1236 0.1205 0.0000
vt 0.1278 0.0012 0.0000
vt 0.2810 0.0163 0.0000
vt 0.3838 0.1685 0.0000
vt 0.4256 0.0674 0.0000
vt 0.4994 0.2303 0.0000
vt 0.5602 0.1394 0.0000
vt 0.6618 0.2138 0.0000
vt 0.6687 0.2208 0.0000
vt 0.6723 0.2280 0.0000
vt 0.6727 0.2354 0.0000
vt 0.6698 0.2429 0.0000
vt 0.6636 0.2506 0.0000
vt 0.6008 0.3135 0.0000
vt 0.4078 0.6410 0.0000
vt 0.3494 0.5698 0.0000
vt 0.4512 0.7222 0.0000
vt 0.4779 0.8103 0.0000
vt 0.4870 0.9019 0.0000
vt 0.2194 0.3258 0.0000
vt 0.1278 0.3168 0.0000
vt 0.3075 0.3526 0.0000
vt 0.3887 0.3960 0.0000
vt 0.4599 0.4544 0.0000
vt 0.3422 0.6848 0.0000
vt 0.2936 0.6256 0.0000
vt 0.3783 0.7524 0.0000
vt 0.4005 0.8257 0.0000
vt 0.4081 0.9019 0.0000
vt 0.2040 0.4032 0.0000
vt 0.1278 0.3957 0.0000
vt 0.2773 0.4255 0.0000
vt 0.3449 0.4616 0.0000
vt 0.4041 0.5102 0.0000
vt 0.1454 0.8164 0.0000
vt 0.1367 0.7826 0.0000
vt 0.7471 0.6051 0.0000
vt 0.7470 0.6004 0.0000
vt 0.7482 0.5951 0.0000
vt 0.7488 0.6091 0.0000
vt 0.1238 0.7880 0.0000
vt 0.1596 0.8430 0.0000
vt 0.1684 0.8719 0.0000
vt 0.1578 0.6354 0.0000
vt 0.1425 0.6339 0.0000
vt 0.1331 0.6306 0.0000
vt 0.1372 0.6328 0.0000
vt 0.1301 0.6274 0.0000
vt 0.1284 0.6231 0.0000
vt 0.1278 0.6177 0.0000
vt 0.1867 0.6442 0.0000
vt 0.2133 0.6584 0.0000
vt 0.2471 0.6671 0.0000
vt 0.2429 0.6705 0.0000
vt 0.2386 0.6723 0.0000
vt 0.2342 0.6725 0.0000
vt 0.2298 0.6712 0.0000
vt 0.2253 0.6682 0.0000
vt 0.8761 0.1007 0.0000
vt 0.8761 0.0379 0.0000
vt 0.9988 0.0379 0.0000
vt 0.9988 0.1007 0.0000
vt 0.9988 0.2416 0.0000
vt 0.8936 0.2416 0.0000
vt 0.8761 0.2416 0.0000
vt 0.8738 0.3035 0.0000
vt 0.7511 0.3035 0.0000
vt 0.7511 0.2246 0.0000
vt 0.8738 0.2246 0.0000
vt 0.8738 0.4998 0.0000
vt 0.7685 0.4998 0.0000
vt 0.7511 0.4998 0.0000
vt 0.8761 0.4544 0.0000
vt 0.8761 0.2974 0.0000
vt 0.8936 0.2974 0.0000
vt 0.9988 0.2974 0.0000
vt 0.9988 0.4544 0.0000
vt 0.7511 0.6191 0.0000
vt 0.7685 0.6191 0.0000
vt 0.9988 0.0010 0.0000
vt 0.9988 0.0080 0.0000
vt 0.8761 0.0080 0.0000
vt 0.8761 0.0010 0.0000
vt 0.9988 0.0153 0.0000
vt 0.8761 0.0153 0.0000
vt 0.9988 0.0226 0.0000
vt 0.8761 0.0226 0.0000
vt 0.9988 0.0302 0.0000
vt 0.8761 0.0302 0.0000
vt 0.1861 0.9019 0.0000
vt 0.1764 0.9043 0.0000
vt 0.1732 0.9072 0.0000
vt 0.1807 0.9025 0.0000
vt 0.7511 0.0026 0.0000
vt 0.8738 0.0026 0.0000
# 122 texture coords

g SectionA
s 8
f 1/1/1 2/2/2 3/3/3 4/4/4 
f 5/5/5 6/6/6 2/2/2 1/1/1 
f 7/7/7 8/8/8 6/6/6 5/5/5 
f 8/8/8 7/7/7 9/9/9 10/10/9 
f 8/8/8 10/10/9 11/11/10 
s off
f 3/12/11 2/13/11 12/14/11 13/15/11 
f 13/15/11 14/16/11 15/17/11 16/18/11 
f 13/15/11 16/18/11 17/19/11 18/20/11 
f 3/12/11 13/15/11 18/20/11 
f 19/21/11 12/14/11 2/13/11 6/22/11 
f 20/23/11 19/21/11 6/22/11 8/24/11 
f 21/25/12 20/23/12 8/24/12 11/26/12 
f 22/27/13 23/28/13 9/29/13 7/30/13 
f 24/31/13 22/27/13 7/30/13 5/32/13 
f 25/33/13 24/31/13 5/32/13 1/34/13 
f 1/34/13 4/35/13 26/36/13 27/37/13 
f 1/34/13 27/37/13 28/38/13 29/39/13 
f 1/34/13 29/39/13 30/40/13 31/41/13 
f 1/34/13 31/41/13 25/33/13 
f 32/42/11 33/43/11 13/15/11 12/14/11 
f 34/44/11 32/42/11 12/14/11 19/21/11 
f 35/45/11 34/44/11 19/21/11 20/23/11 
f 36/46/14 35/45/14 20/23/14 21/25/14 
f 37/47/15 38/48/15 23/28/15 22/27/15 
f 39/49/13 37/47/13 22/27/13 24/31/13 
f 40/50/13 39/49/13 24/31/13 25/33/13 
f 41/51/13 40/50/13 25/33/13 31/41/13 
f 42/52/11 43/53/11 33/43/11 32/42/11 
f 44/54/11 42/52/11 32/42/11 34/44/11 
f 45/55/11 44/54/11 34/44/11 35/45/11 
f 36/46/11 46/56/11 45/55/11 35/45/11 
f 47/57/13 48/58/13 38/48/13 37/47/13 
f 49/59/13 47/57/13 37/47/13 39/49/13 
f 50/60/13 49/59/13 39/49/13 40/50/13 
f 51/61/13 50/60/13 40/50/13 41/51/13 
f 43/53/11 42/52/11 52/62/11 53/63/11 
f 54/64/13 55/65/13 53/66/13 56/67/13 
f 52/62/11 56/68/11 53/63/11 
f 57/69/11 52/62/11 42/52/11 44/54/11 
f 58/70/11 57/69/11 44/54/11 45/55/11 
f 47/57/13 59/71/13 60/72/13 61/73/13 
f 60/72/13 62/74/13 61/73/13 
f 61/73/13 63/75/13 64/76/13 65/77/13 
f 47/57/13 61/73/13 65/77/13 48/58/13 
f 66/78/13 59/71/13 47/57/13 49/59/13 
f 67/79/13 66/78/13 49/59/13 50/60/13 
f 51/61/13 68/80/13 69/81/13 70/82/13 
f 51/61/13 70/82/13 71/83/13 72/84/13 
f 51/61/13 72/84/13 73/85/13 50/60/13 
f 73/85/13 67/79/13 50/60/13 
s 1
f 31/86/16 30/87/16 14/88/16 13/89/16 
f 13/89/16 33/90/16 74/91/16 41/92/16 
f 13/89/16 41/92/16 31/86/16 
s 2
f 36/93/17 38/94/18 48/95/19 46/96/19 
f 36/93/17 21/97/20 75/98/20 23/99/20 
f 36/93/17 23/99/20 38/94/18 
f 68/100/16 51/101/16 76/102/16 43/103/16 
f 68/100/16 43/103/16 53/104/16 
s 8
f 74/91/16 76/102/16 51/101/16 41/92/16 
s 16
f 9/105/21 23/99/21 75/98/21 10/106/21 
s 2
f 3/107/22 18/108/23 26/109/23 4/110/22 
f 18/108/23 17/111/24 27/112/24 26/109/23 
f 17/111/24 16/113/25 28/114/25 27/112/24 
f 16/113/25 15/115/26 29/116/26 28/114/25 
f 15/115/26 14/88/27 30/87/27 29/116/26 
s off
f 45/55/11 46/56/11 77/117/11 58/70/11 
f 78/118/11 79/119/11 58/70/11 80/120/11 
f 77/117/11 80/120/11 58/70/11 
f 65/121/19 77/122/19 46/96/19 48/95/19 
# 59 polygons - 10 triangles

