# 3ds Max Wavefront OBJ Exporter v0.97b - (c)2007 guruware
# File Created: 05.06.2015 06:05:26

#
# object OuterTunnelA_D
#

v  936.4383 10.2559 4707.7686
v  0.0045 10.2559 4800.0000
v  0.0044 439.2195 4800.0000
v  936.4383 439.2195 4707.7686
v  1836.8853 10.2559 4434.6196
v  1836.8853 439.2195 4434.6196
v  2666.7417 10.2559 3991.0510
v  2666.7417 439.2195 3991.0510
v  3394.1167 10.2559 3394.1082
v  3394.1167 439.2195 3394.1082
v  807.8273 10.2991 4026.3779
v  25.6121 10.2991 4070.5986
v  1584.7083 10.2559 3825.8123
v  1099.7153 10.2991 3925.8936
v  2293.0095 10.2558 3431.8516
v  2018.0862 10.2559 3591.8433
v  2927.3701 6.0531 2890.3318
v  1584.7083 439.2197 3825.8123
v  2024.3901 439.2195 3591.8433
v  2290.3459 439.2195 3436.9985
v  807.8273 439.2628 4026.3779
v  1099.7153 439.2628 3925.8936
v  2921.0659 439.2195 2890.3318
v  25.6120 439.2628 4070.5986
v  764.6734 439.1843 3140.0884
v  764.6734 10.2559 3140.0884
v  1662.3596 10.2559 2751.7402
v  1662.3596 439.1843 2751.7402
v  1834.5674 10.2559 3167.4863
v  936.8812 10.2559 3555.8340
v  1834.5674 439.1843 3167.4863
v  936.8812 439.1843 3555.8340
v  1017.1580 439.1843 3357.6704
v  959.7695 439.1843 3219.1226
v  1582.0828 439.1843 2949.9036
v  1639.4714 439.1843 3088.4521
# 36 vertices

vn -0.1951 -0.0000 -0.9808
vn -0.0980 -0.0000 -0.9952
vn -0.1951 0.0000 -0.9808
vn -0.3827 0.0000 -0.9239
vn -0.5556 0.0000 -0.8315
vn -0.6344 0.0000 -0.7730
vn 0.0000 1.0000 0.0001
vn 0.0001 1.0000 0.0000
vn 0.0000 1.0000 -0.0000
vn -0.0002 1.0000 -0.0058
vn -0.0000 -1.0000 -0.0000
vn -0.0000 -1.0000 0.0000
vn -0.0000 -1.0000 -0.0001
vn -0.0001 -1.0000 0.0001
vn 0.5794 -0.0021 0.8150
vn 0.5790 -0.0042 0.8153
vn 0.6526 0.0023 0.7577
vn 0.6549 0.0064 0.7556
vn 0.0564 0.0000 0.9984
vn 0.1928 0.0000 0.9812
vn 0.3255 0.0000 0.9455
vn 0.3970 0.0000 0.9178
vn 0.5031 -0.0049 0.8642
vn 0.5030 -0.0049 0.8643
vn 0.0000 1.0000 -0.0001
vn -0.9153 0.0045 0.4027
vn 0.9153 0.0000 -0.4028
vn 0.0000 -1.0000 0.0000
vn 0.0000 -1.0000 -0.0000
vn -0.0000 -1.0000 0.0002
vn 0.0000 -1.0000 0.0001
vn -0.0001 -1.0000 0.0003
vn -0.9239 0.0000 0.3827
vn 0.9239 0.0000 -0.3827
# 34 vertex normals

vt 0.8328 0.2330 0.0000
vt 0.8328 0.0012 0.0000
vt 0.9921 0.0012 0.0000
vt 0.9921 0.2330 0.0000
vt 0.8328 0.4559 0.0000
vt 0.9921 0.4559 0.0000
vt 0.8328 0.6614 0.0000
vt 0.9921 0.6614 0.0000
vt 0.8328 0.8415 0.0000
vt 0.9921 0.8415 0.0000
vt 0.2316 0.2634 0.0000
vt 0.1597 0.0832 0.0000
vt 0.3207 0.0012 0.0000
vt 0.3980 0.2209 0.0000
vt 0.4309 0.4516 0.0000
vt 0.2679 0.4587 0.0000
vt 0.2396 0.3394 0.0000
vt 0.4182 0.6842 0.0000
vt 0.2536 0.6588 0.0000
vt 0.2607 0.5804 0.0000
vt 0.1985 0.8578 0.0000
vt 0.3604 0.9098 0.0000
vt 0.8176 0.2268 0.0000
vt 0.8303 0.4594 0.0000
vt 0.6673 0.4523 0.0000
vt 0.6608 0.3292 0.0000
vt 0.6539 0.2533 0.0000
vt 0.7974 0.6901 0.0000
vt 0.6310 0.6476 0.0000
vt 0.6390 0.5716 0.0000
vt 0.1932 0.7488 0.0000
vt 0.0339 0.7482 0.0000
vt 0.0323 0.5911 0.0000
vt 0.1932 0.5927 0.0000
vt 0.4323 0.0540 0.0000
vt 0.5916 0.0540 0.0000
vt 0.5916 0.2476 0.0000
vt 0.4323 0.2476 0.0000
vt 0.5916 0.3199 0.0000
vt 0.4323 0.3199 0.0000
vt 0.3973 0.7767 0.0000
vt 0.5566 0.7767 0.0000
vt 0.5566 0.9989 0.0000
vt 0.3973 0.9989 0.0000
vt 0.1932 0.8147 0.0000
vt 0.0339 0.8162 0.0000
vt 0.1463 0.5836 0.0000
vt 0.1395 0.3416 0.0000
vt 0.0159 0.2327 0.0000
vt 0.1752 0.2327 0.0000
vt 0.1752 0.3378 0.0000
vt 0.0159 0.3378 0.0000
vt 0.1041 0.9778 0.0000
vt 0.1041 0.8185 0.0000
vt 0.1957 0.8184 0.0000
vt 0.1957 0.9777 0.0000
vt 0.7201 0.9098 0.0000
vt 0.5591 0.8278 0.0000
vt 0.5973 0.0546 0.0000
vt 0.7598 0.0012 0.0000
vt 0.5390 0.5694 0.0000
vt 0.5458 0.3274 0.0000
vt 0.0159 0.1298 0.0000
vt 0.1752 0.1298 0.0000
vt 0.0012 0.9778 0.0000
vt 0.0012 0.8185 0.0000
vt 0.0350 0.5885 0.0000
vt 0.0282 0.3464 0.0000
vt 0.5029 0.5307 0.0000
vt 0.4658 0.5291 0.0000
vt 0.4705 0.3613 0.0000
vt 0.5076 0.3629 0.0000
vt 0.4345 0.3225 0.0000
vt 0.4277 0.5646 0.0000
# 74 texture coords

g OuterTunnelA_D
s 8
f 1/1/1 2/2/2 3/3/2 4/4/3 
f 5/5/4 1/1/1 4/4/3 6/6/4 
f 7/7/5 5/5/4 6/6/4 8/8/5 
f 9/9/6 7/7/5 8/8/5 10/10/6 
s off
f 11/11/7 12/12/7 2/13/7 1/14/7 
f 1/14/8 5/15/8 13/16/8 14/17/8 
f 1/14/7 14/17/7 11/11/7 
f 5/15/9 7/18/9 15/19/9 16/20/9 
f 5/15/9 16/20/9 13/16/9 
f 17/21/10 15/19/10 7/18/10 9/22/10 
f 8/23/11 6/24/11 18/25/11 19/26/11 
f 8/23/12 19/26/12 20/27/12 
f 6/24/13 4/28/13 21/29/13 22/30/13 
f 6/24/14 22/30/14 18/25/14 
s 1
f 20/31/15 15/32/16 17/33/17 23/34/18 
f 24/35/19 12/36/19 11/37/20 21/38/20 
f 21/38/20 11/37/20 14/39/21 22/40/21 
f 25/41/22 26/42/22 27/43/22 28/44/22 
f 19/45/23 16/46/24 15/32/16 20/31/15 
s off
f 29/47/25 30/48/25 14/17/25 13/16/25 
f 29/47/9 13/16/9 16/20/9 
f 31/49/26 29/50/26 16/51/26 19/52/26 
f 30/53/27 32/54/27 22/55/27 14/56/27 
s 4
f 3/57/13 24/58/13 21/29/13 4/28/13 
f 8/23/28 20/27/28 23/59/28 10/60/29 
s 6
f 32/61/30 31/62/31 19/26/31 18/25/31 
f 32/61/30 18/25/31 22/30/32 
s off
f 28/63/33 27/64/33 29/50/33 31/49/33 
f 26/65/34 25/66/34 32/54/34 30/53/34 
f 27/67/9 26/68/9 30/48/9 29/47/9 
s 8
f 33/69/29 34/70/29 35/71/29 36/72/29 
s off
f 36/72/29 35/71/29 28/73/29 31/62/29 
f 33/69/29 36/72/29 31/62/29 32/61/29 
f 34/70/29 33/69/29 32/61/29 25/74/29 
# 28 polygons - 6 triangles

